<mxfile host="app.diagrams.net" agent="Mozilla/5.0 (Windows NT 10.0; Win64; x64) AppleWebKit/537.36 (KHTML, like Gecko) Chrome/135.0.0.0 Safari/537.36" version="26.2.13">
  <diagram name="Page-1" id="mx4-PNqh4Z-tUVbKUkV3">
    <mxGraphModel dx="1898" dy="1258" grid="1" gridSize="10" guides="1" tooltips="1" connect="1" arrows="1" fold="1" page="1" pageScale="1" pageWidth="850" pageHeight="1100" math="0" shadow="0">
      <root>
        <mxCell id="0" />
        <mxCell id="1" parent="0" />
        <mxCell id="fhvjVyUyL7gcRK4H1l7V-1" value="" style="rounded=0;whiteSpace=wrap;html=1;" parent="1" vertex="1">
          <mxGeometry x="190" y="90" width="510" height="690" as="geometry" />
        </mxCell>
        <mxCell id="fhvjVyUyL7gcRK4H1l7V-2" value="E-Learning System" style="text;html=1;align=center;verticalAlign=middle;whiteSpace=wrap;rounded=0;fontStyle=1" parent="1" vertex="1">
          <mxGeometry x="357.5" y="100" width="175" height="30" as="geometry" />
        </mxCell>
        <mxCell id="fhvjVyUyL7gcRK4H1l7V-3" value="Người dùng" style="shape=umlActor;verticalLabelPosition=bottom;verticalAlign=top;html=1;outlineConnect=0;" parent="1" vertex="1">
          <mxGeometry x="130" y="170" width="30" height="60" as="geometry" />
        </mxCell>
        <mxCell id="fhvjVyUyL7gcRK4H1l7V-5" value="Học sinh" style="shape=umlActor;verticalLabelPosition=bottom;verticalAlign=top;html=1;outlineConnect=0;" parent="1" vertex="1">
          <mxGeometry x="40" y="130" width="20" height="40" as="geometry" />
        </mxCell>
        <mxCell id="fhvjVyUyL7gcRK4H1l7V-6" value="Giảng viên" style="shape=umlActor;verticalLabelPosition=bottom;verticalAlign=top;html=1;outlineConnect=0;" parent="1" vertex="1">
          <mxGeometry x="40" y="220" width="20" height="40" as="geometry" />
        </mxCell>
        <mxCell id="fhvjVyUyL7gcRK4H1l7V-7" value="" style="endArrow=block;html=1;rounded=0;entryX=0.5;entryY=0.5;entryDx=0;entryDy=0;entryPerimeter=0;endFill=0;exitX=0.5;exitY=0.5;exitDx=0;exitDy=0;exitPerimeter=0;" parent="1" source="fhvjVyUyL7gcRK4H1l7V-5" target="fhvjVyUyL7gcRK4H1l7V-3" edge="1">
          <mxGeometry width="50" height="50" relative="1" as="geometry">
            <mxPoint x="80" y="190" as="sourcePoint" />
            <mxPoint x="130" y="140" as="targetPoint" />
          </mxGeometry>
        </mxCell>
        <mxCell id="fhvjVyUyL7gcRK4H1l7V-8" value="" style="endArrow=block;html=1;rounded=0;exitX=0.5;exitY=0.5;exitDx=0;exitDy=0;exitPerimeter=0;entryX=0.5;entryY=0.5;entryDx=0;entryDy=0;entryPerimeter=0;endFill=0;" parent="1" source="fhvjVyUyL7gcRK4H1l7V-6" target="fhvjVyUyL7gcRK4H1l7V-3" edge="1">
          <mxGeometry width="50" height="50" relative="1" as="geometry">
            <mxPoint x="60" y="150" as="sourcePoint" />
            <mxPoint x="155" y="190" as="targetPoint" />
          </mxGeometry>
        </mxCell>
        <mxCell id="fhvjVyUyL7gcRK4H1l7V-10" value="Đăng ký" style="ellipse;whiteSpace=wrap;html=1;" parent="1" vertex="1">
          <mxGeometry x="240" y="130" width="90" height="60" as="geometry" />
        </mxCell>
        <mxCell id="fhvjVyUyL7gcRK4H1l7V-11" value="Đăng nhập" style="ellipse;whiteSpace=wrap;html=1;" parent="1" vertex="1">
          <mxGeometry x="240" y="210" width="90" height="60" as="geometry" />
        </mxCell>
        <mxCell id="fhvjVyUyL7gcRK4H1l7V-12" value="" style="endArrow=none;html=1;rounded=0;exitX=0.5;exitY=0.5;exitDx=0;exitDy=0;exitPerimeter=0;entryX=0;entryY=0.5;entryDx=0;entryDy=0;" parent="1" source="fhvjVyUyL7gcRK4H1l7V-3" target="fhvjVyUyL7gcRK4H1l7V-10" edge="1">
          <mxGeometry width="50" height="50" relative="1" as="geometry">
            <mxPoint x="240" y="280" as="sourcePoint" />
            <mxPoint x="290" y="230" as="targetPoint" />
          </mxGeometry>
        </mxCell>
        <mxCell id="fhvjVyUyL7gcRK4H1l7V-14" value="" style="endArrow=none;html=1;rounded=0;exitX=0.5;exitY=0.5;exitDx=0;exitDy=0;exitPerimeter=0;entryX=0;entryY=0.5;entryDx=0;entryDy=0;" parent="1" source="fhvjVyUyL7gcRK4H1l7V-3" target="fhvjVyUyL7gcRK4H1l7V-11" edge="1">
          <mxGeometry width="50" height="50" relative="1" as="geometry">
            <mxPoint x="155" y="210" as="sourcePoint" />
            <mxPoint x="250" y="170" as="targetPoint" />
          </mxGeometry>
        </mxCell>
        <mxCell id="fhvjVyUyL7gcRK4H1l7V-15" value="Kiểm tra thông tin đăng nhập" style="ellipse;whiteSpace=wrap;html=1;" parent="1" vertex="1">
          <mxGeometry x="400" y="210" width="90" height="60" as="geometry" />
        </mxCell>
        <mxCell id="fhvjVyUyL7gcRK4H1l7V-17" value="" style="endArrow=none;dashed=1;html=1;rounded=0;exitX=1;exitY=0.5;exitDx=0;exitDy=0;entryX=0;entryY=0.5;entryDx=0;entryDy=0;startArrow=open;startFill=0;" parent="1" source="fhvjVyUyL7gcRK4H1l7V-11" target="fhvjVyUyL7gcRK4H1l7V-15" edge="1">
          <mxGeometry width="50" height="50" relative="1" as="geometry">
            <mxPoint x="330" y="350" as="sourcePoint" />
            <mxPoint x="380" y="300" as="targetPoint" />
          </mxGeometry>
        </mxCell>
        <mxCell id="fhvjVyUyL7gcRK4H1l7V-19" value="&lt;font&gt;&lt;font&gt;&amp;lt;&amp;lt;&lt;/font&gt;Include&amp;gt;&amp;gt;&lt;/font&gt;" style="text;html=1;align=center;verticalAlign=middle;whiteSpace=wrap;rounded=0;fontSize=10;" parent="1" vertex="1">
          <mxGeometry x="350" y="220" width="30" height="20" as="geometry" />
        </mxCell>
        <mxCell id="eSXCSgl-B9ryWzq0x9bP-2" value="Xem khóa học" style="ellipse;whiteSpace=wrap;html=1;" vertex="1" parent="1">
          <mxGeometry x="240" y="320" width="90" height="60" as="geometry" />
        </mxCell>
        <mxCell id="eSXCSgl-B9ryWzq0x9bP-3" value="Ghi danh khóa học" style="ellipse;whiteSpace=wrap;html=1;" vertex="1" parent="1">
          <mxGeometry x="400" y="320" width="90" height="60" as="geometry" />
        </mxCell>
        <mxCell id="eSXCSgl-B9ryWzq0x9bP-4" value="" style="endArrow=none;dashed=1;html=1;rounded=0;exitX=1;exitY=0.5;exitDx=0;exitDy=0;entryX=0;entryY=0.5;entryDx=0;entryDy=0;startArrow=open;startFill=0;" edge="1" parent="1" source="eSXCSgl-B9ryWzq0x9bP-2" target="eSXCSgl-B9ryWzq0x9bP-3">
          <mxGeometry width="50" height="50" relative="1" as="geometry">
            <mxPoint x="340" y="250" as="sourcePoint" />
            <mxPoint x="410" y="250" as="targetPoint" />
          </mxGeometry>
        </mxCell>
        <mxCell id="eSXCSgl-B9ryWzq0x9bP-5" value="&amp;lt;&amp;lt;extend&amp;gt;&amp;gt;" style="text;html=1;align=center;verticalAlign=middle;whiteSpace=wrap;rounded=0;fontSize=10;" vertex="1" parent="1">
          <mxGeometry x="350" y="330" width="30" height="20" as="geometry" />
        </mxCell>
        <mxCell id="eSXCSgl-B9ryWzq0x9bP-6" value="Học bài" style="ellipse;whiteSpace=wrap;html=1;" vertex="1" parent="1">
          <mxGeometry x="240" y="470" width="90" height="60" as="geometry" />
        </mxCell>
        <mxCell id="eSXCSgl-B9ryWzq0x9bP-7" value="Làm bài kiểm tra" style="ellipse;whiteSpace=wrap;html=1;" vertex="1" parent="1">
          <mxGeometry x="400" y="420" width="90" height="60" as="geometry" />
        </mxCell>
        <mxCell id="eSXCSgl-B9ryWzq0x9bP-8" value="Gửi phản hồi" style="ellipse;whiteSpace=wrap;html=1;" vertex="1" parent="1">
          <mxGeometry x="400" y="520" width="90" height="60" as="geometry" />
        </mxCell>
        <mxCell id="eSXCSgl-B9ryWzq0x9bP-9" value="Nhận chứng chỉ" style="ellipse;whiteSpace=wrap;html=1;" vertex="1" parent="1">
          <mxGeometry x="570" y="320" width="90" height="60" as="geometry" />
        </mxCell>
        <mxCell id="eSXCSgl-B9ryWzq0x9bP-10" value="" style="endArrow=none;dashed=1;html=1;rounded=0;exitX=1;exitY=0.5;exitDx=0;exitDy=0;entryX=0;entryY=0.5;entryDx=0;entryDy=0;startArrow=open;startFill=0;" edge="1" parent="1" source="eSXCSgl-B9ryWzq0x9bP-6" target="eSXCSgl-B9ryWzq0x9bP-8">
          <mxGeometry width="50" height="50" relative="1" as="geometry">
            <mxPoint x="340" y="360" as="sourcePoint" />
            <mxPoint x="410" y="360" as="targetPoint" />
          </mxGeometry>
        </mxCell>
        <mxCell id="eSXCSgl-B9ryWzq0x9bP-11" value="" style="endArrow=none;dashed=1;html=1;rounded=0;exitX=1;exitY=0.5;exitDx=0;exitDy=0;entryX=0;entryY=0.5;entryDx=0;entryDy=0;startArrow=open;startFill=0;" edge="1" parent="1" source="eSXCSgl-B9ryWzq0x9bP-6" target="eSXCSgl-B9ryWzq0x9bP-7">
          <mxGeometry width="50" height="50" relative="1" as="geometry">
            <mxPoint x="350" y="370" as="sourcePoint" />
            <mxPoint x="420" y="370" as="targetPoint" />
          </mxGeometry>
        </mxCell>
        <mxCell id="eSXCSgl-B9ryWzq0x9bP-12" value="&amp;lt;&amp;lt;extend&amp;gt;&amp;gt;" style="text;html=1;align=center;verticalAlign=middle;whiteSpace=wrap;rounded=0;fontSize=10;" vertex="1" parent="1">
          <mxGeometry x="340" y="450" width="30" height="20" as="geometry" />
        </mxCell>
        <mxCell id="eSXCSgl-B9ryWzq0x9bP-13" value="&amp;lt;&amp;lt;extend&amp;gt;&amp;gt;" style="text;html=1;align=center;verticalAlign=middle;whiteSpace=wrap;rounded=0;fontSize=10;" vertex="1" parent="1">
          <mxGeometry x="340" y="530" width="30" height="20" as="geometry" />
        </mxCell>
        <mxCell id="eSXCSgl-B9ryWzq0x9bP-14" value="" style="endArrow=none;dashed=1;html=1;rounded=0;exitX=1;exitY=0.5;exitDx=0;exitDy=0;entryX=0;entryY=0.5;entryDx=0;entryDy=0;startArrow=open;startFill=0;" edge="1" parent="1" source="eSXCSgl-B9ryWzq0x9bP-7" target="eSXCSgl-B9ryWzq0x9bP-9">
          <mxGeometry width="50" height="50" relative="1" as="geometry">
            <mxPoint x="340" y="360" as="sourcePoint" />
            <mxPoint x="410" y="360" as="targetPoint" />
          </mxGeometry>
        </mxCell>
        <mxCell id="eSXCSgl-B9ryWzq0x9bP-15" value="&lt;font&gt;&lt;font&gt;&amp;lt;&amp;lt;&lt;/font&gt;Include&amp;gt;&amp;gt;&lt;/font&gt;" style="text;html=1;align=center;verticalAlign=middle;whiteSpace=wrap;rounded=0;fontSize=10;" vertex="1" parent="1">
          <mxGeometry x="502.5" y="380" width="30" height="20" as="geometry" />
        </mxCell>
        <mxCell id="eSXCSgl-B9ryWzq0x9bP-16" value="Học sinh" style="shape=umlActor;verticalLabelPosition=bottom;verticalAlign=top;html=1;outlineConnect=0;" vertex="1" parent="1">
          <mxGeometry x="130" y="395" width="30" height="60" as="geometry" />
        </mxCell>
        <mxCell id="eSXCSgl-B9ryWzq0x9bP-17" value="Giáo viên" style="shape=umlActor;verticalLabelPosition=bottom;verticalAlign=top;html=1;outlineConnect=0;" vertex="1" parent="1">
          <mxGeometry x="750" y="520" width="30" height="60" as="geometry" />
        </mxCell>
        <mxCell id="eSXCSgl-B9ryWzq0x9bP-18" value="" style="endArrow=none;html=1;rounded=0;exitX=0.5;exitY=0.5;exitDx=0;exitDy=0;exitPerimeter=0;entryX=0;entryY=0.5;entryDx=0;entryDy=0;" edge="1" parent="1" source="eSXCSgl-B9ryWzq0x9bP-16" target="eSXCSgl-B9ryWzq0x9bP-6">
          <mxGeometry width="50" height="50" relative="1" as="geometry">
            <mxPoint x="260" y="620" as="sourcePoint" />
            <mxPoint x="310" y="570" as="targetPoint" />
          </mxGeometry>
        </mxCell>
        <mxCell id="eSXCSgl-B9ryWzq0x9bP-19" value="" style="endArrow=none;html=1;rounded=0;exitX=0.5;exitY=0.5;exitDx=0;exitDy=0;exitPerimeter=0;entryX=0;entryY=0.5;entryDx=0;entryDy=0;" edge="1" parent="1" source="eSXCSgl-B9ryWzq0x9bP-16" target="eSXCSgl-B9ryWzq0x9bP-2">
          <mxGeometry width="50" height="50" relative="1" as="geometry">
            <mxPoint x="155" y="510" as="sourcePoint" />
            <mxPoint x="250" y="510" as="targetPoint" />
          </mxGeometry>
        </mxCell>
        <mxCell id="eSXCSgl-B9ryWzq0x9bP-20" value="Tạo khóa học" style="ellipse;whiteSpace=wrap;html=1;" vertex="1" parent="1">
          <mxGeometry x="400" y="700" width="90" height="60" as="geometry" />
        </mxCell>
        <mxCell id="eSXCSgl-B9ryWzq0x9bP-21" value="Quản lý nội dung" style="ellipse;whiteSpace=wrap;html=1;" vertex="1" parent="1">
          <mxGeometry x="400" y="610" width="90" height="60" as="geometry" />
        </mxCell>
        <mxCell id="eSXCSgl-B9ryWzq0x9bP-22" value="Chấm điểm" style="ellipse;whiteSpace=wrap;html=1;" vertex="1" parent="1">
          <mxGeometry x="570" y="420" width="90" height="60" as="geometry" />
        </mxCell>
        <mxCell id="eSXCSgl-B9ryWzq0x9bP-23" value="" style="endArrow=none;dashed=1;html=1;rounded=0;exitX=1;exitY=0.5;exitDx=0;exitDy=0;entryX=0;entryY=0.5;entryDx=0;entryDy=0;startArrow=open;startFill=0;" edge="1" parent="1" source="eSXCSgl-B9ryWzq0x9bP-7" target="eSXCSgl-B9ryWzq0x9bP-22">
          <mxGeometry width="50" height="50" relative="1" as="geometry">
            <mxPoint x="500" y="460" as="sourcePoint" />
            <mxPoint x="580" y="360" as="targetPoint" />
          </mxGeometry>
        </mxCell>
        <mxCell id="eSXCSgl-B9ryWzq0x9bP-24" value="&amp;lt;&amp;lt;extend&amp;gt;&amp;gt;" style="text;html=1;align=center;verticalAlign=middle;whiteSpace=wrap;rounded=0;fontSize=10;" vertex="1" parent="1">
          <mxGeometry x="520" y="430" width="30" height="20" as="geometry" />
        </mxCell>
        <mxCell id="eSXCSgl-B9ryWzq0x9bP-25" value="" style="endArrow=none;html=1;rounded=0;exitX=1;exitY=0.5;exitDx=0;exitDy=0;entryX=0.5;entryY=0.5;entryDx=0;entryDy=0;entryPerimeter=0;" edge="1" parent="1" source="eSXCSgl-B9ryWzq0x9bP-22" target="eSXCSgl-B9ryWzq0x9bP-17">
          <mxGeometry width="50" height="50" relative="1" as="geometry">
            <mxPoint x="740" y="480" as="sourcePoint" />
            <mxPoint x="790" y="430" as="targetPoint" />
          </mxGeometry>
        </mxCell>
        <mxCell id="eSXCSgl-B9ryWzq0x9bP-26" value="" style="endArrow=none;html=1;rounded=0;exitX=1;exitY=0.5;exitDx=0;exitDy=0;entryX=0.5;entryY=0.5;entryDx=0;entryDy=0;entryPerimeter=0;" edge="1" parent="1" source="eSXCSgl-B9ryWzq0x9bP-8" target="eSXCSgl-B9ryWzq0x9bP-17">
          <mxGeometry width="50" height="50" relative="1" as="geometry">
            <mxPoint x="670" y="460" as="sourcePoint" />
            <mxPoint x="775" y="550" as="targetPoint" />
          </mxGeometry>
        </mxCell>
        <mxCell id="eSXCSgl-B9ryWzq0x9bP-27" value="" style="endArrow=none;html=1;rounded=0;exitX=1;exitY=0.5;exitDx=0;exitDy=0;entryX=0.5;entryY=0.5;entryDx=0;entryDy=0;entryPerimeter=0;" edge="1" parent="1" source="eSXCSgl-B9ryWzq0x9bP-21" target="eSXCSgl-B9ryWzq0x9bP-17">
          <mxGeometry width="50" height="50" relative="1" as="geometry">
            <mxPoint x="500" y="560" as="sourcePoint" />
            <mxPoint x="775" y="550" as="targetPoint" />
          </mxGeometry>
        </mxCell>
        <mxCell id="eSXCSgl-B9ryWzq0x9bP-28" value="" style="endArrow=none;html=1;rounded=0;exitX=1;exitY=0.5;exitDx=0;exitDy=0;entryX=0.5;entryY=0.5;entryDx=0;entryDy=0;entryPerimeter=0;" edge="1" parent="1" source="eSXCSgl-B9ryWzq0x9bP-20" target="eSXCSgl-B9ryWzq0x9bP-17">
          <mxGeometry width="50" height="50" relative="1" as="geometry">
            <mxPoint x="500" y="650" as="sourcePoint" />
            <mxPoint x="775" y="550" as="targetPoint" />
          </mxGeometry>
        </mxCell>
        <mxCell id="eSXCSgl-B9ryWzq0x9bP-29" value="Quản trị viên" style="shape=umlActor;verticalLabelPosition=bottom;verticalAlign=top;html=1;outlineConnect=0;" vertex="1" parent="1">
          <mxGeometry x="750" y="130" width="30" height="60" as="geometry" />
        </mxCell>
        <mxCell id="eSXCSgl-B9ryWzq0x9bP-30" value="Quản trị hệ thống" style="ellipse;whiteSpace=wrap;html=1;" vertex="1" parent="1">
          <mxGeometry x="570" y="130" width="90" height="60" as="geometry" />
        </mxCell>
        <mxCell id="eSXCSgl-B9ryWzq0x9bP-31" value="" style="endArrow=none;html=1;rounded=0;exitX=1;exitY=0.5;exitDx=0;exitDy=0;entryX=0.5;entryY=0.5;entryDx=0;entryDy=0;entryPerimeter=0;" edge="1" parent="1" source="eSXCSgl-B9ryWzq0x9bP-30" target="eSXCSgl-B9ryWzq0x9bP-29">
          <mxGeometry width="50" height="50" relative="1" as="geometry">
            <mxPoint x="500" y="560" as="sourcePoint" />
            <mxPoint x="775" y="560" as="targetPoint" />
          </mxGeometry>
        </mxCell>
        <mxCell id="eSXCSgl-B9ryWzq0x9bP-32" value="" style="endArrow=none;html=1;rounded=0;entryX=0;entryY=0.5;entryDx=0;entryDy=0;exitX=0;exitY=0;exitDx=155;exitDy=30;exitPerimeter=0;" edge="1" parent="1" source="eSXCSgl-B9ryWzq0x9bP-33" target="eSXCSgl-B9ryWzq0x9bP-20">
          <mxGeometry width="50" height="50" relative="1" as="geometry">
            <mxPoint x="230" y="750" as="sourcePoint" />
            <mxPoint x="280" y="700" as="targetPoint" />
          </mxGeometry>
        </mxCell>
        <mxCell id="eSXCSgl-B9ryWzq0x9bP-33" value="&amp;lt;&amp;lt;extend&amp;gt;&amp;gt; Đăng nhập" style="shape=note;whiteSpace=wrap;html=1;backgroundOutline=1;darkOpacity=0.05;" vertex="1" parent="1">
          <mxGeometry x="5" y="700" width="155" height="60" as="geometry" />
        </mxCell>
      </root>
    </mxGraphModel>
  </diagram>
</mxfile>
